<svg xmlns="http://www.w3.org/2000/svg" viewBox="0 0 600 400" width="600" height="400"><rect x="0" y="0" width="600" height="400" fill="#FFFFFF"/>
<rect x="20" y="75" width="100" height="250" fill="#FFFFFF" stroke="#888888" stroke-width="3"/>
<g transform="translate(-230.0,0.0) scale(0.7)"><circle cx="270" cy="180" r="10" fill="#111111" stroke="#111111" stroke-width="1"/><circle cx="300" cy="220" r="10" fill="#111111" stroke="#111111" stroke-width="1"/></g>
<rect x="135" y="75" width="100" height="250" fill="#FFFFFF" stroke="#888888" stroke-width="3"/>
<g transform="translate(-115.0,0.0) scale(0.7)"><circle cx="260" cy="180" r="10" fill="#111111" stroke="#111111" stroke-width="1"/><circle cx="290" cy="180" r="10" fill="#111111" stroke="#111111" stroke-width="1"/><circle cx="320" cy="220" r="10" fill="#111111" stroke="#111111" stroke-width="1"/></g>
<rect x="250" y="75" width="100" height="250" fill="#FFFFFF" stroke="#888888" stroke-width="3"/>
<g transform="translate(0.0,0.0) scale(0.7)"><circle cx="255" cy="175" r="10" fill="#111111" stroke="#111111" stroke-width="1"/><circle cx="285" cy="175" r="10" fill="#111111" stroke="#111111" stroke-width="1"/><circle cx="315" cy="175" r="10" fill="#111111" stroke="#111111" stroke-width="1"/><circle cx="345" cy="215" r="10" fill="#111111" stroke="#111111" stroke-width="1"/></g>
<rect x="365" y="75" width="100" height="250" fill="#FFFFFF" stroke="#888888" stroke-width="3"/>
<g transform="translate(115.0,0.0) scale(0.7)"><circle cx="250" cy="170" r="10" fill="#111111" stroke="#111111" stroke-width="1"/><circle cx="280" cy="170" r="10" fill="#111111" stroke="#111111" stroke-width="1"/><circle cx="310" cy="170" r="10" fill="#111111" stroke="#111111" stroke-width="1"/><circle cx="340" cy="170" r="10" fill="#111111" stroke="#111111" stroke-width="1"/><circle cx="300" cy="220" r="10" fill="#111111" stroke="#111111" stroke-width="1"/></g>
<rect x="480" y="75" width="100" height="250" fill="#FFFFFF" stroke="#888888" stroke-width="3"/>
</svg>