<svg xmlns="http://www.w3.org/2000/svg" viewBox="0 0 600 400" width="600" height="400"><rect x="0" y="0" width="600" height="400" fill="#FFFFFF"/>
<rect x="155" y="55" width="90" height="90" fill="#FFFFFF" stroke="#888888" stroke-width="3"/>
<g transform="translate(-100.0,-100.0) scale(0.70)"><polygon points="300.0,160.0 260.0,240.0 340.0,240.0" fill="none" stroke="#111111" stroke-width="6" stroke-linejoin="round"/></g>
<rect x="255" y="55" width="90" height="90" fill="#FFFFFF" stroke="#888888" stroke-width="3"/>
<g transform="translate(0.0,-100.0) scale(0.70)"><polygon points="340.0,200.0 260.0,160.0 260.0,240.0" fill="none" stroke="#111111" stroke-width="6" stroke-linejoin="round"/></g>
<rect x="355" y="55" width="90" height="90" fill="#FFFFFF" stroke="#888888" stroke-width="3"/>
<g transform="translate(100.0,-100.0) scale(0.70)"><polygon points="300.0,240.0 340.0,160.0 260.0,160.0" fill="none" stroke="#111111" stroke-width="6" stroke-linejoin="round"/></g>
<rect x="155" y="155" width="90" height="90" fill="#FFFFFF" stroke="#888888" stroke-width="3"/>
<g transform="translate(-100.0,0.0) scale(0.70)"><rect x="260.0" y="160.0" width="80" height="80" fill="none" stroke="#111111" stroke-width="6" rx="0"/></g>
<rect x="255" y="155" width="90" height="90" fill="#FFFFFF" stroke="#888888" stroke-width="3"/>
<g transform="translate(0.0,0.0) scale(0.70)"><rect x="260.0" y="160.0" width="80" height="80" fill="none" stroke="#111111" stroke-width="6" rx="0"/></g>
<rect x="355" y="155" width="90" height="90" fill="#FFFFFF" stroke="#888888" stroke-width="3"/>
<g transform="translate(100.0,0.0) scale(0.70)"><rect x="260.0" y="160.0" width="80" height="80" fill="none" stroke="#111111" stroke-width="6" rx="0"/></g>
<rect x="155" y="255" width="90" height="90" fill="#FFFFFF" stroke="#888888" stroke-width="3"/>
<g transform="translate(-100.0,100.0) scale(0.70)"><polygon points="300,155.0 345.0,200 300,245.0 255.0,200" fill="none" stroke="#111111" stroke-width="6" stroke-linejoin="round"/></g>
<rect x="255" y="255" width="90" height="90" fill="#FFFFFF" stroke="#888888" stroke-width="3"/>
<g transform="translate(0.0,100.0) scale(0.70)"><polygon points="300,155.0 345.0,200 300,245.0 255.0,200" fill="none" stroke="#111111" stroke-width="6" stroke-linejoin="round"/></g>
<rect x="355" y="255" width="90" height="90" fill="#FFFFFF" stroke="#888888" stroke-width="3"/>
</svg>