<svg xmlns="http://www.w3.org/2000/svg" viewBox="0 0 600 400" width="600" height="400"><rect x="0" y="0" width="600" height="400" fill="#FFFFFF"/>
<rect x="20" y="75" width="100" height="250" fill="#FFFFFF" stroke="#888888" stroke-width="3"/>
<g transform="translate(-230.0,0.0) scale(0.7)"><polygon points="320.0,150.0 320.0,210.0 350.0,210.0 300.0,250.0 250.0,210.0 280.0,210.0 280.0,150.0" fill="#111111" stroke="#111111" stroke-width="4" stroke-linejoin="round"/></g>
<rect x="135" y="75" width="100" height="250" fill="#FFFFFF" stroke="#888888" stroke-width="3"/>
<g transform="translate(-115.0,0.0) scale(0.7)"><polygon points="280.0,250.0 280.0,190.0 250.0,190.0 300.0,150.0 350.0,190.0 320.0,190.0 320.0,250.0" fill="#111111" stroke="#111111" stroke-width="4" stroke-linejoin="round"/></g>
<rect x="250" y="75" width="100" height="250" fill="#FFFFFF" stroke="#888888" stroke-width="3"/>
<g transform="translate(0.0,0.0) scale(0.7)"><polygon points="320.0,150.0 320.0,210.0 350.0,210.0 300.0,250.0 250.0,210.0 280.0,210.0 280.0,150.0" fill="#111111" stroke="#111111" stroke-width="4" stroke-linejoin="round"/></g>
<rect x="365" y="75" width="100" height="250" fill="#FFFFFF" stroke="#888888" stroke-width="3"/>
<g transform="translate(115.0,0.0) scale(0.7)"><polygon points="280.0,250.0 280.0,190.0 250.0,190.0 300.0,150.0 350.0,190.0 320.0,190.0 320.0,250.0" fill="#111111" stroke="#111111" stroke-width="4" stroke-linejoin="round"/></g>
<rect x="480" y="75" width="100" height="250" fill="#FFFFFF" stroke="#888888" stroke-width="3"/>
</svg>