<svg xmlns="http://www.w3.org/2000/svg" viewBox="0 0 600 400" width="600" height="400"><rect x="0" y="0" width="600" height="400" fill="#FFFFFF"/>
<rect x="20" y="75" width="100" height="250" fill="#FFFFFF" stroke="#888888" stroke-width="3"/>
<g transform="translate(-230.0,0.0) scale(0.7)"><polygon points="300.0,150.0 250.0,250.0 350.0,250.0" fill="none" stroke="#111111" stroke-width="6" stroke-linejoin="round"/></g>
<rect x="135" y="75" width="100" height="250" fill="#FFFFFF" stroke="#888888" stroke-width="3"/>
<g transform="translate(-115.0,0.0) scale(0.7)"><polygon points="350.0,200.0 250.0,150.0 250.0,250.0" fill="none" stroke="#111111" stroke-width="6" stroke-linejoin="round"/></g>
<rect x="250" y="75" width="100" height="250" fill="#FFFFFF" stroke="#888888" stroke-width="3"/>
<g transform="translate(0.0,0.0) scale(0.7)"><polygon points="300.0,250.0 350.0,150.0 250.0,150.0" fill="none" stroke="#111111" stroke-width="6" stroke-linejoin="round"/></g>
<rect x="365" y="75" width="100" height="250" fill="#FFFFFF" stroke="#888888" stroke-width="3"/>
<g transform="translate(115.0,0.0) scale(0.7)"><polygon points="250.0,200.0 350.0,250.0 350.0,150.0" fill="none" stroke="#111111" stroke-width="6" stroke-linejoin="round"/></g>
<rect x="480" y="75" width="100" height="250" fill="#FFFFFF" stroke="#888888" stroke-width="3"/>
</svg>