<svg xmlns="http://www.w3.org/2000/svg" viewBox="0 0 600 400" width="600" height="400"><rect x="0" y="0" width="600" height="400" fill="#FFFFFF"/>
<rect x="20" y="75" width="100" height="250" fill="#FFFFFF" stroke="#888888" stroke-width="3"/>
<g transform="translate(-230.0,0.0) scale(0.7)"><line x1="250.0" y1="200" x2="350.0" y2="200" stroke="#111111" stroke-width="10" stroke-linecap="round"/><line x1="300" y1="150.0" x2="300" y2="250.0" stroke="#111111" stroke-width="10" stroke-linecap="round"/><circle cx="300" cy="145" r="10" fill="#111111" stroke="#111111" stroke-width="1"/></g>
<rect x="135" y="75" width="100" height="250" fill="#FFFFFF" stroke="#888888" stroke-width="3"/>
<g transform="translate(-115.0,0.0) scale(0.7)"><line x1="250.0" y1="200" x2="350.0" y2="200" stroke="#111111" stroke-width="10" stroke-linecap="round"/><line x1="300" y1="150.0" x2="300" y2="250.0" stroke="#111111" stroke-width="10" stroke-linecap="round"/><circle cx="355" cy="200" r="10" fill="#111111" stroke="#111111" stroke-width="1"/></g>
<rect x="250" y="75" width="100" height="250" fill="#FFFFFF" stroke="#888888" stroke-width="3"/>
<g transform="translate(0.0,0.0) scale(0.7)"><line x1="250.0" y1="200" x2="350.0" y2="200" stroke="#111111" stroke-width="10" stroke-linecap="round"/><line x1="300" y1="150.0" x2="300" y2="250.0" stroke="#111111" stroke-width="10" stroke-linecap="round"/><circle cx="300" cy="255" r="10" fill="#111111" stroke="#111111" stroke-width="1"/></g>
<rect x="365" y="75" width="100" height="250" fill="#FFFFFF" stroke="#888888" stroke-width="3"/>
<g transform="translate(115.0,0.0) scale(0.7)"><line x1="250.0" y1="200" x2="350.0" y2="200" stroke="#111111" stroke-width="10" stroke-linecap="round"/><line x1="300" y1="150.0" x2="300" y2="250.0" stroke="#111111" stroke-width="10" stroke-linecap="round"/><circle cx="245" cy="200" r="10" fill="#111111" stroke="#111111" stroke-width="1"/></g>
<rect x="480" y="75" width="100" height="250" fill="#FFFFFF" stroke="#888888" stroke-width="3"/>
</svg>